HIERARCHY
ROOT Hips
{
	OFFSET 0.000000 71.427986 0.000000
	CHANNELS 6 Xposition Yposition Zposition Xrotation Yrotation Zrotation
	JOINT Pelvis
	{
		OFFSET 0.000000 0.000000 0.000000
		CHANNELS 3 Xrotation Yrotation Zrotation
		JOINT LeftUpLeg
		{
			OFFSET 6.797100 -2.508499 -1.318700
			CHANNELS 3 Xrotation Yrotation Zrotation
			JOINT LeftLeg
			{
				OFFSET 0.069008 -29.241863 0.690200
				CHANNELS 3 Xrotation Yrotation Zrotation
				JOINT LeftFoot
				{
					OFFSET -0.069008 -29.568123 -0.266800
					CHANNELS 3 Xrotation Yrotation Zrotation
					JOINT LeftToeBase
					{
						OFFSET 3.145500 -8.631000 16.059900
						CHANNELS 3 Xrotation Yrotation Zrotation
						End Site
						{
							OFFSET 0.000000 18.501587 0.000000
						}
					}
				}
			}
			JOINT Left_ShortSleeve
			{
				OFFSET 0.265923 -10.480953 1.153800
				CHANNELS 3 Xrotation Yrotation Zrotation
				End Site
				{
					OFFSET 1.725763 19.823879 0.000000
				}
			}
		}
		JOINT RightUpLeg
		{
			OFFSET -6.797100 -2.508499 -1.318700
			CHANNELS 3 Xrotation Yrotation Zrotation
			JOINT RightLeg
			{
				OFFSET -0.082453 -29.241932 0.688000
				CHANNELS 3 Xrotation Yrotation Zrotation
				JOINT RightFoot
				{
					OFFSET 0.082453 -29.568058 -0.264600
					CHANNELS 3 Xrotation Yrotation Zrotation
					JOINT RightToeBase
					{
						OFFSET -3.115300 -8.682800 16.113400
						CHANNELS 3 Xrotation Yrotation Zrotation
						End Site
						{
							OFFSET 0.000000 18.567114 0.000000
						}
					}
				}
			}
			JOINT Right_ShortSleeve
			{
				OFFSET -0.265923 -10.480953 1.153800
				CHANNELS 3 Xrotation Yrotation Zrotation
				End Site
				{
					OFFSET -1.725766 19.823910 0.000000
				}
			}
		}
	}
	JOINT Spine
	{
		OFFSET 0.000000 13.368103 0.470500
		CHANNELS 3 Xrotation Yrotation Zrotation
		JOINT Spine1
		{
			OFFSET 0.147000 13.837402 0.538800
			CHANNELS 3 Xrotation Yrotation Zrotation
			JOINT Spine2
			{
				OFFSET 0.168000 16.242897 -1.435500
				CHANNELS 3 Xrotation Yrotation Zrotation
				JOINT Neck
				{
					OFFSET 0.217200 18.631500 -1.679100
					CHANNELS 3 Xrotation Yrotation Zrotation
					JOINT Head
					{
						OFFSET 0.000000 6.599396 1.385900
						CHANNELS 3 Xrotation Yrotation Zrotation
						JOINT Hat
						{
							OFFSET -0.532200 27.220596 -10.096100
							CHANNELS 3 Xrotation Yrotation Zrotation
							End Site
							{
								OFFSET 0.000000 22.029861 0.000000
							}
						}
						JOINT HairD
						{
							OFFSET -10.777400 17.437393 -1.325900
							CHANNELS 3 Xrotation Yrotation Zrotation
							JOINT HairD1
							{
								OFFSET -3.290299 -11.051193 1.062200
								CHANNELS 3 Xrotation Yrotation Zrotation
								End Site
								{
									OFFSET 0.000000 11.579437 0.000000
								}
							}
						}
						JOINT HairB
						{
							OFFSET -10.777400 17.437393 1.467900
							CHANNELS 3 Xrotation Yrotation Zrotation
							JOINT HairB1
							{
								OFFSET -1.561200 -12.956299 3.590200
								CHANNELS 3 Xrotation Yrotation Zrotation
								End Site
								{
									OFFSET 0.000000 13.534866 0.000000
								}
							}
						}
						JOINT HairA
						{
							OFFSET 9.713100 17.437393 1.467900
							CHANNELS 3 Xrotation Yrotation Zrotation
							JOINT HairA1
							{
								OFFSET 1.561200 -12.956299 3.590200
								CHANNELS 3 Xrotation Yrotation Zrotation
								End Site
								{
									OFFSET 0.000000 13.534866 0.000000
								}
							}
						}
						JOINT HairC
						{
							OFFSET 9.713100 17.437393 -1.325900
							CHANNELS 3 Xrotation Yrotation Zrotation
							JOINT HairC1
							{
								OFFSET 3.290300 -11.051193 1.062200
								CHANNELS 3 Xrotation Yrotation Zrotation
								End Site
								{
									OFFSET 0.000000 11.579437 0.000000
								}
							}
						}
					}
				}
				JOINT LeftShoulder
				{
					OFFSET 5.101800 15.108002 -2.763700
					CHANNELS 3 Xrotation Yrotation Zrotation
					JOINT LeftArm
					{
						OFFSET 9.825497 2.506317 -1.597400
						CHANNELS 3 Xrotation Yrotation Zrotation
						JOINT LeftForeArm
						{
							OFFSET 21.966244 0.000000 0.000000
							CHANNELS 3 Xrotation Yrotation Zrotation
							JOINT LeftHand
							{
								OFFSET 33.879036 0.000000 0.000000
								CHANNELS 3 Xrotation Yrotation Zrotation
								JOINT LeftHandThumb1
								{
									OFFSET 6.715286 -2.359680 3.363841
									CHANNELS 3 Xrotation Yrotation Zrotation
									JOINT LeftHandThumb2
									{
										OFFSET 2.507072 -1.447464 1.447461
										CHANNELS 3 Xrotation Yrotation Zrotation
										JOINT LeftHandThumb3
										{
											OFFSET 2.898338 -1.673355 1.673357
											CHANNELS 3 Xrotation Yrotation Zrotation
											End Site
											{
												OFFSET -0.295959 3.727692 -0.131651
											}
										}
									}
								}
								JOINT LeftHandIndex1
								{
									OFFSET 14.190811 -0.254547 3.840278
									CHANNELS 3 Xrotation Yrotation Zrotation
									JOINT LeftHandIndex2
									{
										OFFSET 3.551727 0.000000 -0.000000
										CHANNELS 3 Xrotation Yrotation Zrotation
										JOINT LeftHandIndex3
										{
											OFFSET 2.894196 0.000000 0.000000
											CHANNELS 3 Xrotation Yrotation Zrotation
											End Site
											{
												OFFSET -1.000603 2.690872 0.366626
											}
										}
									}
								}
								JOINT LeftHandMiddle1
								{
									OFFSET 13.776489 0.000000 0.000000
									CHANNELS 3 Xrotation Yrotation Zrotation
									JOINT LeftHandMiddle2
									{
										OFFSET 3.438232 0.000000 0.000000
										CHANNELS 3 Xrotation Yrotation Zrotation
										JOINT LeftHandMiddle3
										{
											OFFSET 3.691551 0.000000 0.000000
											CHANNELS 3 Xrotation Yrotation Zrotation
											End Site
											{
												OFFSET -1.082298 3.499527 0.457670
											}
										}
									}
								}
								JOINT LeftHandRing1
								{
									OFFSET 13.966164 -0.268127 -3.067488
									CHANNELS 3 Xrotation Yrotation Zrotation
									JOINT LeftHandRing2
									{
										OFFSET 3.162567 0.000000 0.000000
										CHANNELS 3 Xrotation Yrotation Zrotation
										JOINT LeftHandRing3
										{
											OFFSET 3.324348 0.000000 0.000000
											CHANNELS 3 Xrotation Yrotation Zrotation
											End Site
											{
												OFFSET -0.861900 3.184998 0.405154
											}
										}
									}
								}
								JOINT LeftHandPinky1
								{
									OFFSET 13.131393 -0.168503 -5.746925
									CHANNELS 3 Xrotation Yrotation Zrotation
									JOINT LeftHandPinky2
									{
										OFFSET 2.849182 0.000000 0.000000
										CHANNELS 3 Xrotation Yrotation Zrotation
										JOINT LeftHandPinky3
										{
											OFFSET 2.805038 0.000000 0.000000
											CHANNELS 3 Xrotation Yrotation Zrotation
											End Site
											{
												OFFSET -0.882500 2.642609 0.325652
											}
										}
									}
								}
							}
							JOINT Left_Sleeve
							{
								OFFSET 6.592125 -0.646545 0.805568
								CHANNELS 3 Xrotation Yrotation Zrotation
								End Site
								{
									OFFSET -0.000179 20.275787 -0.000000
								}
							}
						}
					}
				}
				JOINT RightShoulder
				{
					OFFSET -5.731700 15.108002 -2.763700
					CHANNELS 3 Xrotation Yrotation Zrotation
					JOINT RightArm
					{
						OFFSET -9.825497 2.506317 -1.597400
						CHANNELS 3 Xrotation Yrotation Zrotation
						JOINT RightForeArm
						{
							OFFSET -21.966242 0.000000 0.000000
							CHANNELS 3 Xrotation Yrotation Zrotation
							JOINT RightHand
							{
								OFFSET -33.879032 0.000000 0.000000
								CHANNELS 3 Xrotation Yrotation Zrotation
								JOINT RightHandThumb1
								{
									OFFSET -6.715286 -2.359680 3.363841
									CHANNELS 3 Xrotation Yrotation Zrotation
									JOINT RightHandThumb2
									{
										OFFSET -2.507072 -1.447464 1.447461
										CHANNELS 3 Xrotation Yrotation Zrotation
										JOINT RightHandThumb3
										{
											OFFSET -2.898338 -1.673355 1.673357
											CHANNELS 3 Xrotation Yrotation Zrotation
											End Site
											{
												OFFSET 0.295959 3.727692 -0.131651
											}
										}
									}
								}
								JOINT RightHandIndex1
								{
									OFFSET -14.190811 -0.254547 3.840278
									CHANNELS 3 Xrotation Yrotation Zrotation
									JOINT RightHandIndex2
									{
										OFFSET -3.551727 0.000000 -0.000000
										CHANNELS 3 Xrotation Yrotation Zrotation
										JOINT RightHandIndex3
										{
											OFFSET -2.894196 0.000000 0.000000
											CHANNELS 3 Xrotation Yrotation Zrotation
											End Site
											{
												OFFSET 1.000603 2.690872 0.366626
											}
										}
									}
								}
								JOINT RightHandMiddle1
								{
									OFFSET -13.776489 0.000000 0.000000
									CHANNELS 3 Xrotation Yrotation Zrotation
									JOINT RightHandMiddle2
									{
										OFFSET -3.438232 0.000000 0.000000
										CHANNELS 3 Xrotation Yrotation Zrotation
										JOINT RightHandMiddle3
										{
											OFFSET -3.691551 0.000000 0.000000
											CHANNELS 3 Xrotation Yrotation Zrotation
											End Site
											{
												OFFSET 1.082298 3.499527 0.457670
											}
										}
									}
								}
								JOINT RightHandRing1
								{
									OFFSET -13.966164 -0.268127 -3.067488
									CHANNELS 3 Xrotation Yrotation Zrotation
									JOINT RightHandRing2
									{
										OFFSET -3.162567 0.000000 0.000000
										CHANNELS 3 Xrotation Yrotation Zrotation
										JOINT RightHandRing3
										{
											OFFSET -3.324348 0.000000 0.000000
											CHANNELS 3 Xrotation Yrotation Zrotation
											End Site
											{
												OFFSET 0.861900 3.184998 0.405154
											}
										}
									}
								}
								JOINT RightHandPinky1
								{
									OFFSET -13.131393 -0.168503 -5.746925
									CHANNELS 3 Xrotation Yrotation Zrotation
									JOINT RightHandPinky2
									{
										OFFSET -2.849182 0.000000 0.000000
										CHANNELS 3 Xrotation Yrotation Zrotation
										JOINT RightHandPinky3
										{
											OFFSET -2.805038 0.000000 0.000000
											CHANNELS 3 Xrotation Yrotation Zrotation
											End Site
											{
												OFFSET 0.882500 2.642609 0.325652
											}
										}
									}
								}
							}
							JOINT Right_Sleeve
							{
								OFFSET -6.592125 -0.646545 0.805568
								CHANNELS 3 Xrotation Yrotation Zrotation
								End Site
								{
									OFFSET 0.000179 20.275787 -0.000000
								}
							}
						}
					}
				}
				JOINT Bind_Right_JacketString
				{
					OFFSET -3.534800 11.969597 7.200700
					CHANNELS 3 Xrotation Yrotation Zrotation
					JOINT Bind_Right_JacketString1
					{
						OFFSET -0.319900 -6.102600 2.794100
						CHANNELS 3 Xrotation Yrotation Zrotation
						End Site
						{
							OFFSET 0.000000 6.719452 0.000000
						}
					}
				}
				JOINT Bind_Left_JacketString
				{
					OFFSET 2.904800 11.969597 7.200700
					CHANNELS 3 Xrotation Yrotation Zrotation
					JOINT Bind_Left_JacketString1
					{
						OFFSET 0.364800 -5.904503 3.186800
						CHANNELS 3 Xrotation Yrotation Zrotation
						End Site
						{
							OFFSET 0.000000 6.719513 0.000000
						}
					}
				}
				JOINT HairE
				{
					OFFSET 5.915200 17.612701 -11.592200
					CHANNELS 3 Xrotation Yrotation Zrotation
					JOINT HairE1
					{
						OFFSET 0.289200 -7.171898 -1.284500
						CHANNELS 3 Xrotation Yrotation Zrotation
						End Site
						{
							OFFSET 0.000000 7.291756 0.000000
						}
					}
				}
				JOINT HairF
				{
					OFFSET -0.864800 17.612701 -11.592200
					CHANNELS 3 Xrotation Yrotation Zrotation
					JOINT HairF1
					{
						OFFSET 0.000000 -14.087097 -2.127501
						CHANNELS 3 Xrotation Yrotation Zrotation
						End Site
						{
							OFFSET 0.000000 14.246841 0.000000
						}
					}
				}
				JOINT HairG
				{
					OFFSET -8.087700 17.612701 -11.592200
					CHANNELS 3 Xrotation Yrotation Zrotation
					JOINT HairG1
					{
						OFFSET -0.293600 -6.081398 -0.910100
						CHANNELS 3 Xrotation Yrotation Zrotation
						End Site
						{
							OFFSET 0.000000 6.156120 0.000000
						}
					}
				}
			}
		}
	}
	JOINT Pouch
	{
		OFFSET 0.000000 4.394501 10.847300
		CHANNELS 3 Xrotation Yrotation Zrotation
		End Site
		{
			OFFSET 0.000000 21.880577 0.000000
		}
	}
	JOINT Bag
	{
		OFFSET -13.229000 4.813004 -0.593300
		CHANNELS 3 Xrotation Yrotation Zrotation
		End Site
		{
			OFFSET 0.000000 21.880577 0.000000
		}
	}
	JOINT OccupyGuyFacialAnim_Joint
	{
		OFFSET 1.000000 -70.206398 -1.655000
		CHANNELS 3 Xrotation Yrotation Zrotation
		End Site
		{
			OFFSET 0.000000 21.880577 0.000000
		}
	}
}
MOTION
Frames: 4
Frame Time: 0.016667
0.157613 65.714722 -0.568375 33.917948 -23.171202 7.696116 0.000002 0.000003 -0.000001 -74.912244 8.273283 20.006379 96.366415 5.638544 -4.875675 3.917871 -5.125762 1.747566 -0.000005 -0.000000 0.000000 0.000000 -0.000000 -0.000000 -45.264343 5.221664 5.283773 47.845728 4.286716 0.524775 -25.467149 -1.903511 -0.329418 -0.000001 -0.000001 0.000000 -0.000001 0.000001 -0.000001 11.667980 3.661082 -2.634081 5.818549 0.259715 -2.809620 -10.931792 0.793514 3.196298 0.763617 9.298930 -8.496112 -32.953132 4.763625 2.047905 -0.000000 0.000000 0.000000 -0.000000 0.000000 0.000000 -0.000000 0.000000 -0.000000 -0.000000 0.000000 0.000000 -0.000000 -0.000000 -0.000000 -0.000000 0.000000 0.000000 -0.000000 -0.000000 -0.000000 -0.000000 0.000000 0.000000 -0.000000 0.000000 0.000000 1.952252 -2.052957 14.106887 -76.027348 17.447732 -39.907634 -79.531303 -83.559551 -82.552685 -40.469772 -0.152856 8.942055 17.551580 -5.699175 -12.932256 10.850573 26.127719 8.644752 -0.000004 0.000003 -0.000001 13.980899 1.201578 -55.004374 0.370791 1.161697 -65.441873 0.000005 -0.000002 -0.000000 7.504738 1.174531 -63.778510 1.807883 1.475652 -64.568012 0.000005 0.000001 -0.000003 8.574291 2.179114 -75.148979 -0.207608 1.009284 -57.855049 -0.000000 -0.000001 -0.000001 10.030082 13.637109 -84.750217 0.877120 0.062346 -64.595469 -0.000001 -0.000001 -0.000004 0.000004 -0.000002 0.000002 4.985261 19.106682 8.633894 -22.095488 5.720159 42.521326 29.456697 69.546892 -32.206213 0.332153 10.304437 -5.342101 18.329294 0.310699 -9.071068 -2.198337 -31.113537 7.361220 -0.000000 0.000002 -0.000001 2.375173 -3.668645 30.846989 -2.142106 -2.481794 41.032928 0.000001 0.000001 0.000002 -1.972137 -5.717187 36.022022 0.289291 -5.113436 49.347915 0.000002 -0.000003 -0.000001 -3.257771 -8.572653 37.723336 4.044303 -4.071794 59.216914 0.000001 0.000000 -0.000002 -6.464748 -11.358799 54.840876 10.730552 -2.567744 66.401822 -0.000000 0.000002 0.000003 0.000000 -0.000001 -0.000002 0.000000 0.000001 0.000000 0.000000 -0.000002 0.000001 0.000000 0.000001 0.000000 0.000000 0.000001 0.000000 0.000000 0.000001 0.000000 0.000000 -0.000002 0.000001 0.000000 0.000001 0.000000 0.000000 0.000001 0.000000 0.000000 0.000001 0.000000 0.000000 -0.000002 0.000001 0.000002 0.000003 -0.000001 0.000002 0.000003 -0.000001 0.000002 0.000003 -0.000001 
-0.118423 66.112213 4.158474 32.003043 -21.837959 7.233984 -0.000001 -0.000000 0.000000 -77.761430 7.433819 19.336740 93.169053 5.881508 -4.334217 3.020164 -5.043768 0.362641 0.000001 0.000000 0.000000 -0.000004 0.000000 -0.000000 -39.769446 4.705293 2.954865 48.165524 2.707592 0.200009 -24.931215 -4.971027 2.382976 -0.000001 -0.000001 0.000000 0.000000 0.000001 0.000000 13.553175 4.130748 -4.563604 4.946206 0.681142 -1.790053 -10.657565 0.747529 3.502203 -0.964059 8.765074 -7.245212 -30.630031 4.634937 1.209476 -0.000000 -0.000000 -0.000000 -0.000000 -0.000000 -0.000000 -0.000000 -0.000000 -0.000000 -0.000000 -0.000000 -0.000000 -0.000000 -0.000000 -0.000000 -0.000000 -0.000000 -0.000000 -0.000000 -0.000000 -0.000000 -0.000000 -0.000000 -0.000000 -0.000000 -0.000000 -0.000000 1.850594 -1.530463 12.872931 -74.590242 15.606163 -37.843380 -144.942352 -87.295623 -147.418869 -48.350868 2.730414 12.545401 17.551582 -5.699180 -12.932257 10.850573 26.127722 8.644752 0.000002 0.000001 -0.000001 13.980898 1.201581 -55.004374 0.370793 1.161702 -65.441887 -0.000001 0.000000 0.000002 7.504738 1.174528 -63.778517 1.807881 1.475655 -64.568012 0.000000 -0.000001 -0.000003 8.574291 2.179109 -75.148979 -0.207607 1.009285 -57.855049 -0.000002 -0.000001 -0.000004 10.030083 13.637105 -84.750223 0.877119 0.062346 -64.595469 -0.000002 0.000001 -0.000004 -0.000001 -0.000001 0.000002 4.599379 20.091990 7.394493 -22.228622 2.483214 40.725894 73.013971 78.448725 -77.195823 3.828278 11.723706 0.088484 16.754302 0.369568 -8.461185 -1.642434 -29.135784 6.903586 -0.000001 0.000002 -0.000000 2.171760 -3.424956 28.919434 -2.060048 -2.222294 38.754258 -0.000001 0.000003 0.000002 -1.682239 -5.183783 33.477366 0.193933 -4.713278 48.099637 0.000000 0.000002 -0.000002 -2.821101 -8.304355 35.271158 3.590734 -3.876628 56.964929 0.000001 -0.000002 -0.000001 -6.055248 -10.420635 51.003966 9.770750 -2.646438 64.230375 -0.000002 -0.000001 0.000000 0.000000 0.000002 -0.000001 0.000001 0.000000 -0.000000 0.000001 0.000000 -0.000000 0.000001 0.000000 0.000000 0.000001 0.000000 0.000000 0.000001 0.000000 -0.000000 0.000001 0.000000 -0.000000 0.000001 0.000000 0.000000 0.000001 0.000000 0.000000 0.000001 0.000000 -0.000000 0.000001 0.000000 -0.000000 -0.000001 -0.000000 0.000000 -0.000001 -0.000000 0.000000 -0.000001 -0.000000 0.000000 
-0.417470 66.581467 8.961201 30.052846 -20.475172 6.878018 0.000001 -0.000000 0.000000 -79.752123 7.003826 18.393474 88.225041 6.406543 -3.847631 2.253129 -4.891908 -1.148069 -0.000000 -0.000000 0.000000 0.000002 -0.000000 0.000000 -33.246940 4.180856 0.649877 46.600277 1.332761 -0.145029 -22.941752 -8.547633 5.936567 -0.000001 -0.000002 0.000000 -0.000000 0.000001 -0.000000 15.528092 4.706599 -6.780304 4.029737 1.227232 -0.599438 -10.285312 0.762046 3.923218 -2.852086 7.836787 -6.163745 -28.170350 4.307469 0.283355 0.000000 0.000000 -0.000000 0.000000 0.000000 -0.000000 0.000000 0.000000 -0.000000 0.000000 0.000000 -0.000000 0.000000 0.000000 -0.000000 0.000000 0.000000 -0.000000 0.000000 0.000000 -0.000000 0.000000 0.000000 -0.000000 0.000000 0.000000 -0.000000 1.718144 -1.109382 11.529362 -73.265486 13.679102 -35.280536 -210.645780 -84.574421 -212.480013 -56.352985 4.804328 15.957417 17.551585 -5.699175 -12.932256 10.850575 26.127719 8.644750 0.000000 -0.000000 -0.000000 13.980899 1.201581 -55.004374 0.370790 1.161700 -65.441880 -0.000001 -0.000003 0.000001 7.504738 1.174534 -63.778510 1.807884 1.475656 -64.568012 0.000008 0.000001 0.000003 8.574290 2.179116 -75.148979 -0.207612 1.009286 -57.855049 -0.000001 0.000000 0.000003 10.030083 13.637112 -84.750223 0.877118 0.062347 -64.595476 -0.000000 -0.000000 -0.000002 0.000000 -0.000000 -0.000000 4.280034 20.150721 5.717931 -22.945337 2.376923 38.931460 122.509852 76.439809 -127.618314 5.357766 7.052865 3.426954 15.011009 0.421162 -7.763758 -1.045700 -26.961185 6.336292 -0.000000 -0.000001 0.000000 1.966070 -3.143418 26.765517 -1.949419 -1.946040 36.208800 -0.000002 -0.000001 0.000002 -1.319214 -4.630103 30.634665 0.107753 -4.267016 46.698721 0.000000 0.000002 0.000001 -2.322576 -8.050461 32.533058 3.109228 -3.624314 54.449964 0.000001 0.000003 0.000002 -5.502867 -9.469279 46.733196 8.715332 -2.657344 61.799278 -0.000003 0.000001 -0.000003 0.000003 -0.000000 -0.000000 -0.000002 0.000001 -0.000000 -0.000002 -0.000000 0.000001 -0.000002 0.000001 -0.000001 -0.000002 0.000001 -0.000001 -0.000002 0.000001 -0.000000 -0.000002 -0.000000 0.000000 -0.000002 0.000001 -0.000001 -0.000002 0.000001 -0.000001 -0.000002 0.000001 -0.000000 -0.000002 -0.000000 0.000000 0.000001 -0.000000 0.000000 0.000001 -0.000000 0.000000 0.000001 -0.000000 0.000000 
-0.726302 67.084457 13.787230 28.088564 -19.107191 6.614961 -0.000000 -0.000000 -0.000000 -80.154305 7.159082 17.094862 81.412283 7.233823 -3.361190 1.526158 -4.690492 -2.642449 0.000001 0.000000 0.000000 0.000002 0.000000 -0.000000 -26.194595 3.710063 -1.470404 43.805995 -0.395012 -0.464704 -19.401875 -11.611364 9.834349 -0.000001 -0.000001 0.000000 0.000000 0.000001 -0.000000 17.599924 5.366644 -9.147695 3.077284 1.862036 0.679605 -9.831929 0.832859 4.395545 -4.861704 6.567923 -5.254666 -25.614990 3.813658 -0.693865 0.000000 -0.000000 0.000000 0.000000 -0.000000 0.000000 0.000000 -0.000000 0.000000 0.000000 -0.000000 0.000000 0.000000 -0.000000 -0.000000 0.000000 -0.000000 0.000000 0.000000 -0.000000 -0.000000 0.000000 -0.000000 0.000000 0.000000 -0.000000 0.000000 1.645549 -1.000238 9.830194 -71.214489 12.734331 -32.673579 -207.557359 -81.794780 -208.883126 -60.947636 5.792294 18.734739 17.551585 -5.699177 -12.932254 10.850572 26.127719 8.644751 0.000001 -0.000000 -0.000001 13.980898 1.201577 -55.004377 0.370791 1.161701 -65.441887 -0.000000 0.000001 -0.000002 7.504738 1.174527 -63.778517 1.807880 1.475656 -64.568012 0.000002 0.000003 -0.000001 8.574290 2.179111 -75.148979 -0.207609 1.009285 -57.855056 -0.000001 0.000002 0.000001 10.030082 13.637108 -84.750223 0.877116 0.062346 -64.595476 0.000000 -0.000002 -0.000004 0.000003 -0.000001 0.000000 3.982598 19.709894 3.730238 -24.454300 4.678995 37.090526 140.273535 71.780466 -145.773449 5.361435 -0.110371 4.820067 13.153466 0.458989 -6.994887 -0.426166 -24.662056 5.664084 -0.000001 -0.000001 -0.000000 1.770439 -2.830800 24.446791 -1.805899 -1.664645 33.469368 0.000001 0.000004 0.000004 -0.886117 -4.086509 27.574570 0.038913 -3.788283 45.183887 0.000001 -0.000003 0.000002 -1.777083 -7.831427 29.587720 2.625434 -3.317472 51.745073 -0.000001 -0.000002 -0.000002 -4.811199 -8.568000 42.150668 7.604488 -2.580013 59.179252 0.000000 0.000001 -0.000003 0.000003 -0.000001 -0.000002 0.000002 0.000000 0.000000 0.000002 0.000000 0.000000 0.000002 0.000000 0.000000 0.000002 0.000000 0.000000 0.000002 0.000000 0.000000 0.000002 0.000000 0.000000 0.000002 0.000000 0.000000 0.000002 0.000000 0.000000 0.000002 0.000000 0.000000 0.000002 0.000000 0.000000 -0.000000 -0.000000 -0.000000 -0.000000 -0.000000 -0.000000 -0.000000 -0.000000 -0.000000 
